# xmcd CD database file
#
# Track frame offsets:
#	150
#	18662
#	41185
#	59612
#
# Disc length: 1092 seconds
#
# Revision: 0
# Processed by: cddbd v1.5.1PL0 Copyright (c) Steve Scherf et al.
# Submitted via: CDex 1.51
#
DISCID=36044204
DTITLE=宍戸留美 - ご近所物語　ＮＧ！
DYEAR=1996
DGENRE=Anime
TTITLE0=01.ＮＧ！
TTITLE1=02.Ｈｅａｒｔ
TTITLE2=03.ＮＧ！（カラオケ）
TTITLE3=04.Ｈｅａｒｔ（カラオケ）
EXTD=YEAR: 1996
EXTT0=
EXTT1=
EXTT2=
EXTT3=
PLAYORDER=
